HIERARCHY
ROOT hip
{
  OFFSET 0 0 0
  CHANNELS 6 Xposition Yposition Zposition Zrotation Yrotation Xrotation
  JOINT abdomen
  {
    OFFSET 0 20.6881 -0.73152
    CHANNELS 3 Zrotation Xrotation Yrotation
    JOINT chest
    {
      OFFSET 0 11.7043 -0.48768
      CHANNELS 3 Zrotation Xrotation Yrotation
      JOINT neck
      {
        OFFSET 0 22.1894 -2.19456
        CHANNELS 3 Zrotation Xrotation Yrotation
        JOINT head
        {
          OFFSET -0.24384 7.07133 1.2192
          CHANNELS 3 Zrotation Xrotation Yrotation
          JOINT leftEye
          {
            OFFSET 4.14528 8.04674 8.04672
            CHANNELS 3 Zrotation Xrotation Yrotation
            End Site
            {
              OFFSET 1 0 0
            }
          }
          JOINT rightEye
          {
            OFFSET -3.6576 8.04674 8.04672
            CHANNELS 3 Zrotation Xrotation Yrotation
            End Site
            {
              OFFSET 1 0 0
            }
          }
        }
      }
      JOINT rCollar
      {
        OFFSET -2.68224 19.2634 -4.8768
        CHANNELS 3 Zrotation Xrotation Yrotation
        JOINT rShldr
        {
          OFFSET -8.77824 -1.95073 1.46304
          CHANNELS 3 Zrotation Xrotation Yrotation
          JOINT rForeArm
          {
            OFFSET -28.1742 -1.7115 0.48768
            CHANNELS 3 Zrotation Xrotation Yrotation
            JOINT rHand
            {
              OFFSET -22.5879 0.773209 7.07136
              CHANNELS 3 Zrotation Xrotation Yrotation
              JOINT rThumb1
              {
                OFFSET -1.2192 -0.487915 3.41376
                CHANNELS 3 Zrotation Xrotation Yrotation
                JOINT rThumb2
                {
                  OFFSET -3.37035 -0.52449 3.41376
                  CHANNELS 3 Zrotation Xrotation Yrotation
                  End Site
                  {
                    OFFSET -1.78271 -1.18214 1.43049
                  }
                }
              }
              JOINT rIndex1
              {
                OFFSET -7.75947 0.938293 5.60832
                CHANNELS 3 Zrotation Xrotation Yrotation
                JOINT rIndex2
                {
                  OFFSET -2.54057 -0.884171 1.56538
                  CHANNELS 3 Zrotation Xrotation Yrotation
                  End Site
                  {
                    OFFSET -1.62519 -0.234802 1.16502
                  }
                }
              }
              JOINT rMid1
              {
                OFFSET -8.24714 1.18213 3.41376
                CHANNELS 3 Zrotation Xrotation Yrotation
                JOINT rMid2
                {
                  OFFSET -3.10165 -0.590103 1.0647
                  CHANNELS 3 Zrotation Xrotation Yrotation
                  End Site
                  {
                    OFFSET -2.48547 -0.328903 0.83742
                  }
                }
              }
              JOINT rRing1
              {
                OFFSET -8.82822 0.546677 1.51678
                CHANNELS 3 Zrotation Xrotation Yrotation
                JOINT rRing2
                {
                  OFFSET -2.60934 -0.819778 -0.0198488
                  CHANNELS 3 Zrotation Xrotation Yrotation
                  End Site
                  {
                    OFFSET -2.33842 -0.294052 0.168128
                  }
                }
              }
              JOINT rPinky1
              {
                OFFSET -8.27202 -0.0477905 -0.4584
                CHANNELS 3 Zrotation Xrotation Yrotation
                JOINT rPinky2
                {
                  OFFSET -1.82734 -0.647385 -0.700984
                  CHANNELS 3 Zrotation Xrotation Yrotation
                  End Site
                  {
                    OFFSET -1.69225 -0.51767 -0.607171
                  }
                }
              }
            }
          }
        }
      }
      JOINT lCollar
      {
        OFFSET 2.68224 19.2634 -4.8768
        CHANNELS 3 Zrotation Xrotation Yrotation
        JOINT lShldr
        {
          OFFSET 8.77824 -1.95073 1.46304
          CHANNELS 3 Zrotation Xrotation Yrotation
          JOINT lForeArm
          {
            OFFSET 28.1742 -1.7115 0.48768
            CHANNELS 3 Zrotation Xrotation Yrotation
            JOINT lHand
            {
              OFFSET 22.5879 0.773209 7.07136
              CHANNELS 3 Zrotation Xrotation Yrotation
              JOINT lThumb1
              {
                OFFSET 1.2192 -0.487915 3.41376
                CHANNELS 3 Zrotation Xrotation Yrotation
                JOINT lThumb2
                {
                  OFFSET 3.37035 -0.52449 3.41376
                  CHANNELS 3 Zrotation Xrotation Yrotation
                  End Site
                  {
                    OFFSET 1.78271 -1.18214 1.43049
                  }
                }
              }
              JOINT lIndex1
              {
                OFFSET 7.75947 0.938293 5.60832
                CHANNELS 3 Zrotation Xrotation Yrotation
                JOINT lIndex2
                {
                  OFFSET 2.54057 -0.884171 1.56538
                  CHANNELS 3 Zrotation Xrotation Yrotation
                  End Site
                  {
                    OFFSET 1.62519 -0.234802 1.16502
                  }
                }
              }
              JOINT lMid1
              {
                OFFSET 8.24714 1.18213 3.41376
                CHANNELS 3 Zrotation Xrotation Yrotation
                JOINT lMid2
                {
                  OFFSET 3.10165 -0.590103 1.0647
                  CHANNELS 3 Zrotation Xrotation Yrotation
                  End Site
                  {
                    OFFSET 2.48547 -0.328903 0.83742
                  }
                }
              }
              JOINT lRing1
              {
                OFFSET 8.82822 0.546677 1.51678
                CHANNELS 3 Zrotation Xrotation Yrotation
                JOINT lRing2
                {
                  OFFSET 2.60934 -0.819778 -0.0198488
                  CHANNELS 3 Zrotation Xrotation Yrotation
                  End Site
                  {
                    OFFSET 2.33842 -0.294052 0.168128
                  }
                }
              }
              JOINT lPinky1
              {
                OFFSET 8.27202 -0.0477905 -0.4584
                CHANNELS 3 Zrotation Xrotation Yrotation
                JOINT lPinky2
                {
                  OFFSET 1.82734 -0.647385 -0.700984
                  CHANNELS 3 Zrotation Xrotation Yrotation
                  End Site
                  {
                    OFFSET 1.69225 -0.51767 -0.607171
                  }
                }
              }
            }
          }
        }
      }
    }
  }
  JOINT rButtock
  {
    OFFSET -8.77824 4.35084 1.2192
    CHANNELS 3 Zrotation Xrotation Yrotation
    JOINT rThigh
    {
      OFFSET 0 -1.70687 -2.19456
      CHANNELS 3 Zrotation Xrotation Yrotation
      JOINT rShin
      {
        OFFSET 0 -36.8199 0.73152
        CHANNELS 3 Zrotation Xrotation Yrotation
        JOINT rFoot
        {
          OFFSET 0.73152 -45.1104 -5.12064
          CHANNELS 3 Zrotation Xrotation Yrotation
          End Site
          {
            OFFSET -1.1221 -3.69964 12.103
          }
        }
      }
    }
  }
  JOINT lButtock
  {
    OFFSET 8.77824 4.35084 1.2192
    CHANNELS 3 Zrotation Xrotation Yrotation
    JOINT lThigh
    {
      OFFSET 0 -1.70687 -2.19456
      CHANNELS 3 Zrotation Xrotation Yrotation
      JOINT lShin
      {
        OFFSET 0 -36.8199 0.73152
        CHANNELS 3 Zrotation Xrotation Yrotation
        JOINT lFoot
        {
          OFFSET -0.73152 -45.1104 -5.12064
          CHANNELS 3 Zrotation Xrotation Yrotation
          End Site
          {
            OFFSET 1.1221 -3.69964 12.103
          }
        }
      }
    }
  }
}
MOTION
Frames:	4
Frame Time:	0.00833333
-1.04961 92.8141 78.3387 -0.7157 6.6806 -3.2385 -3.40828 15.4786 2.91923 2.72478 -4.48334 0.795643 -2.68728 0.808513 -0.787689 2.25084 -2.7553 -0.757079 -0.0 0.0 0.0 -0.0 0.0 0.0 -3.45545e-14 -4.82609e-14 -4.47398e-14 80.8043 25.509 -9.865 -21.3177 -14.7623 41.9958 -0.375451 -17.1595 -2.48722 6.16409e-10 -8.31501e-10 -3.14924e-10 1.07034e-09 -1.44552e-09 -5.36558e-10 6.16413e-10 -8.315e-10 -3.14932e-10 7.73091 5.47488 0.417314 6.16408e-10 -8.31502e-10 -3.14924e-10 2.90554 0.965183 0.102902 6.1641e-10 -8.31499e-10 -3.14927e-10 10.2786 0.731801 0.0259123 6.16407e-10 -8.31501e-10 -3.14921e-10 2.22167 -0.733487 -0.20892 -3.47087e-14 -4.82622e-14 -4.49785e-14 -91.2609 11.7725 22.2429 23.8302 -18.783 -49.0803 0.265249 -14.5313 2.08739 3.32148e-10 3.09283e-11 2.59619e-10 5.70095e-10 5.03518e-11 4.5105e-10 3.32137e-10 3.09209e-11 2.59625e-10 -7.73091 5.47488 -0.417314 3.32151e-10 3.09251e-11 2.5962e-10 -2.90554 0.965183 -0.102902 3.32149e-10 3.0925e-11 2.5961e-10 -10.2786 0.731801 -0.0259123 3.32159e-10 3.09291e-11 2.59598e-10 -2.22167 -0.733487 0.20892 -2.03217e-16 0.0 -3.88251e-19 -2.52805 -24.1112 -1.97519 -0.308923 37.6559 0.554621 -0.5144 4.1639 -0.546958 2.03217e-16 0.0 3.88251e-19 -0.778349 -23.3873 1.41284 0.218647 34.1705 -0.515999 0.86365 7.63477 -6.69776
-1.02873 91.1039 80.267 -0.5076 7.0169 -3.7082 -3.5135 15.8045 2.66329 2.84328 -4.40176 0.723787 -2.67338 1.25351 -0.695766 2.23423 -3.14744 -0.593033 -0.0 0.0 0.0 -0.0 0.0 0.0 -2.71501e-14 -8.90548e-14 -6.98231e-14 80.5063 26.3797 -9.55605 -21.3132 -14.7589 41.9721 -0.366824 -16.9717 -2.45827 6.04082e-10 -8.85848e-10 -3.45443e-10 1.04964e-09 -1.53999e-09 -5.89197e-10 6.04088e-10 -8.85848e-10 -3.45453e-10 7.73091 5.47488 0.417314 6.04082e-10 -8.85851e-10 -3.45443e-10 2.90554 0.965183 0.102902 6.04084e-10 -8.85848e-10 -3.45446e-10 10.2786 0.731801 0.0259123 6.04081e-10 -8.8585e-10 -3.4544e-10 2.22167 -0.733487 -0.20892 -2.73187e-14 -8.90571e-14 -7.00716e-14 -91.292 12.5679 22.3132 23.7699 -18.6736 -48.8898 0.248803 -14.0611 2.01723 2.97778e-10 1.19584e-10 1.87685e-10 5.12103e-10 2.05368e-10 3.25286e-10 2.97764e-10 1.19576e-10 1.87691e-10 -7.73091 5.47488 -0.417314 2.9778e-10 1.19581e-10 1.87685e-10 -2.90554 0.965183 -0.102902 2.97779e-10 1.1958e-10 1.87675e-10 -10.2786 0.731801 -0.0259123 2.97788e-10 1.19584e-10 1.87662e-10 -2.22167 -0.733487 0.20892 -2.03217e-16 0.0 -3.88251e-19 -1.66349 -24.932 -0.449942 -0.303631 37.2906 0.540497 -0.500135 4.65319 1.03441 2.03217e-16 0.0 3.88251e-19 -0.834883 -23.8243 2.85739 0.223365 34.4574 -0.518092 0.805159 7.70976 -4.8694
-1.05062 89.1747 82.2617 -0.7444 7.5384 -4.3626 -3.29229 16.177 2.04595 2.92717 -4.22829 0.555624 -2.68713 1.90589 -0.568109 2.17108 -3.85162 -0.359913 -0.0 0.0 0.0 -0.0 0.0 0.0 -1.69769e-14 -8.69115e-14 -6.35532e-14 80.1795 27.38 -9.27921 -21.4028 -14.8869 42.1993 -0.373665 -17.0938 -2.47742 4.67006e-10 -7.08483e-10 -2.11927e-10 8.10221e-10 -1.22956e-09 -3.60089e-10 4.67013e-10 -7.08484e-10 -2.11939e-10 7.73091 5.47488 0.417314 4.67006e-10 -7.08486e-10 -2.11928e-10 2.90554 0.965183 0.102902 4.67009e-10 -7.08484e-10 -2.1193e-10 10.2786 0.731801 0.0259123 4.67005e-10 -7.08486e-10 -2.11924e-10 2.22167 -0.733487 -0.20892 -1.7153e-14 -8.69142e-14 -6.37714e-14 -91.4211 13.704 22.5487 23.7817 -18.6886 -48.9612 0.254177 -14.0907 2.02247 3.60686e-10 2.51928e-10 -1.59947e-11 6.23802e-10 4.35819e-10 -2.6129e-11 3.60672e-10 2.51921e-10 -1.59844e-11 -7.73091 5.47488 -0.417314 3.60688e-10 2.51925e-10 -1.59957e-11 -2.90554 0.965183 -0.102902 3.60686e-10 2.51925e-10 -1.60013e-11 -10.2786 0.731801 -0.0259123 3.60693e-10 2.51928e-10 -1.60123e-11 -2.22167 -0.733487 0.20892 -2.03217e-16 0.0 -3.88251e-19 -0.991561 -25.2279 0.962985 -0.307165 37.4538 0.545603 -0.462899 3.85428 1.94995 2.03217e-16 0.0 3.88251e-19 -0.679836 -23.8599 4.11554 0.24525 35.8623 -0.554694 0.626142 5.74815 -3.50999
-1.06967 87.0348 84.3011 -1.2354 8.3999 -5.3052 -2.82789 16.5675 1.15978 2.99356 -3.98141 0.316227 -2.72467 2.72616 -0.41241 2.09866 -4.78046 -0.0723254 -0.0 0.0 0.0 -0.0 0.0 0.0 -3.5639e-15 -6.11753e-14 -3.76728e-14 79.8347 28.5317 -9.04261 -21.5771 -15.1372 42.6529 -0.388521 -17.3682 -2.52035 2.3551e-10 -3.70102e-10 2.06903e-11 4.05713e-10 -6.38086e-10 3.90455e-11 2.35516e-10 -3.70103e-10 2.06756e-11 7.73091 5.47488 0.417314 2.3551e-10 -3.70105e-10 2.06881e-11 2.90554 0.965183 0.102902 2.35514e-10 -3.70103e-10 2.06884e-11 10.2786 0.731801 0.0259123 2.35507e-10 -3.70105e-10 2.06941e-11 2.22167 -0.733487 -0.20892 -3.74166e-15 -6.11779e-14 -3.78343e-14 -91.6511 15.1135 22.9305 23.8533 -18.8095 -49.2389 0.273393 -14.4334 2.07501 4.72161e-10 4.09447e-10 -3.02207e-10 8.2046e-10 7.09835e-10 -5.1913e-10 4.7215e-10 4.09443e-10 -3.02191e-10 -7.73091 5.47488 -0.417314 4.72163e-10 4.09444e-10 -3.02209e-10 -2.90554 0.965183 -0.102902 4.72159e-10 4.09444e-10 -3.02209e-10 -10.2786 0.731801 -0.0259123 4.72166e-10 4.09447e-10 -3.02217e-10 -2.22167 -0.733487 0.20892 -2.03217e-16 0.0 -3.88251e-19 -0.47081 -25.117 2.39308 -0.317202 37.9925 0.564066 -0.377524 2.26703 2.43531 2.03217e-16 0.0 3.88251e-19 -0.380688 -23.5832 5.22733 0.284289 38.0896 -0.620364 0.468307 2.4435 -2.35263
